<svg width="48" height="48" viewBox="0 0 48 48" fill="none" xmlns="http://www.w3.org/2000/svg">
<path d="M40 24C41.408 23.9793 42.7526 23.4108 43.7484 22.415C44.7441 21.4193 45.3127 20.0747 45.3333 18.6666V7.99996H32V5.90662C31.9982 5.47939 31.9124 5.05668 31.7472 4.66264C31.5821 4.26859 31.341 3.91093 31.0377 3.61007C30.7344 3.3092 30.3747 3.07103 29.9793 2.90916C29.584 2.74728 29.1606 2.66487 28.7333 2.66662H19.2667C18.8394 2.66487 18.416 2.74728 18.0206 2.90916C17.6253 3.07103 17.2656 3.3092 16.9623 3.61007C16.659 3.91093 16.4178 4.26859 16.2527 4.66264C16.0876 5.05668 16.0017 5.47939 16 5.90662V7.99996H2.66666V18.6666C2.68763 20.0861 3.26539 21.4406 4.27544 22.4381C5.2855 23.4357 6.64702 23.9966 8.06666 24H13.4V21.2266H16.0667V28.8266C16.0667 29.1802 15.9262 29.5194 15.6761 29.7694C15.4261 30.0195 15.0869 30.16 14.7333 30.16C14.3797 30.16 14.0406 30.0195 13.7905 29.7694C13.5405 29.5194 13.4 29.1802 13.4 28.8266V26.7466H8.07999C6.07856 26.7434 4.14956 25.9974 2.66666 24.6533V37.2533C2.66666 37.9605 2.94761 38.6388 3.4477 39.1389C3.9478 39.639 4.62608 39.92 5.33332 39.92H42.6667C43.3739 39.92 44.0522 39.639 44.5523 39.1389C45.0524 38.6388 45.3333 37.9605 45.3333 37.2533V24.6533C43.8545 26.0041 41.9229 26.7511 39.92 26.7466H37.3333V24H40ZM18.6667 5.90662C18.6735 5.75216 18.7398 5.60631 18.8515 5.49949C18.9633 5.39268 19.112 5.33314 19.2667 5.33329H28.7333C28.8879 5.33314 29.0366 5.39268 29.1484 5.49949C29.2602 5.60631 29.3265 5.75216 29.3333 5.90662V7.99996H18.6667V5.90662ZM34.6667 28.8266C34.6667 29.1802 34.5262 29.5194 34.2761 29.7694C34.0261 30.0195 33.6869 30.16 33.3333 30.16C32.9797 30.16 32.6406 30.0195 32.3905 29.7694C32.1405 29.5194 32 29.1802 32 28.8266V26.7466H18.6667V24H32V21.2266H34.6667V28.8266Z" fill="#8E322E"/>
</svg>
