<svg width="48" height="48" viewBox="0 0 48 48" fill="none" xmlns="http://www.w3.org/2000/svg">
<path d="M39.7467 21.3333H38.6667V11.7733C38.6667 11.0661 38.3857 10.3878 37.8856 9.88773C37.3855 9.38763 36.7072 9.10668 36 9.10668H28C27.9157 7.50161 27.2699 5.97724 26.1756 4.80004C25.0812 3.62284 23.608 2.86772 22.0133 2.66668C21.1012 2.57277 20.1796 2.66803 19.3059 2.94649C18.4323 3.22496 17.6255 3.68064 16.936 4.28506C16.2465 4.88948 15.6891 5.62963 15.2986 6.45926C14.9081 7.28888 14.693 8.19013 14.6667 9.10668H5.33332C4.62608 9.10668 3.9478 9.38763 3.4477 9.88773C2.94761 10.3878 2.66666 11.0661 2.66666 11.7733V22.6667H6.41332C7.43927 22.6369 8.44022 22.9862 9.22486 23.6478C10.0095 24.3095 10.5228 25.2371 10.6667 26.2533C10.7186 26.8109 10.6528 27.3732 10.4737 27.9038C10.2945 28.4343 10.0059 28.9214 9.62666 29.3333C9.25388 29.7501 8.79785 30.0841 8.28801 30.3138C7.77816 30.5435 7.22583 30.6637 6.66666 30.6667H2.66666V42.44C2.66666 43.1473 2.94761 43.8255 3.4477 44.3256C3.9478 44.8257 4.62608 45.1067 5.33332 45.1067H36C36.7072 45.1067 37.3855 44.8257 37.8856 44.3256C38.3857 43.8255 38.6667 43.1473 38.6667 42.44V34.6667H40C40.9357 34.6716 41.862 34.4794 42.7186 34.1027C43.5752 33.7259 44.3429 33.1731 44.9718 32.4801C45.6006 31.7871 46.0765 30.9695 46.3685 30.0805C46.6605 29.1915 46.7621 28.2509 46.6667 27.32C46.4506 25.6461 45.6255 24.1104 44.3491 23.0061C43.0727 21.9018 41.4342 21.3063 39.7467 21.3333Z" fill="#8E322E"/>
</svg>
