<svg width="32" height="32" viewBox="0 0 32 32" fill="none" xmlns="http://www.w3.org/2000/svg">
<path d="M19.3125 9.41667C19.3125 10.3333 18.9896 11.1146 18.3438 11.7604C17.6979 12.4062 16.9167 12.7292 16 12.7292C15.0833 12.7292 14.3021 12.4062 13.6562 11.7604C13.0104 11.1146 12.6875 10.3333 12.6875 9.41667C12.6875 8.5 13.0104 7.71875 13.6562 7.07292C14.3021 6.42708 15.0833 6.10417 16 6.10417C16.9167 6.10417 17.6979 6.42708 18.3438 7.07292C18.9896 7.71875 19.3125 8.5 19.3125 9.41667ZM23.7708 16.9792C23.6319 16.7014 23.4375 16.4792 23.1875 16.3125C22.9375 16.1458 22.6076 16.0799 22.1979 16.1146C21.7882 16.1493 21.3681 16.3403 20.9375 16.6875C20.7986 16.7986 20.5972 16.9375 20.3333 17.1042C20.0694 17.2708 19.5069 17.4931 18.6458 17.7708C17.7847 18.0486 16.9028 18.1875 16 18.1875C15.0972 18.1875 14.2361 18.0625 13.4167 17.8125C12.5972 17.5625 12 17.3125 11.625 17.0625L11.0625 16.6875C10.6319 16.3403 10.2118 16.1493 9.80208 16.1146C9.39236 16.0799 9.0625 16.1458 8.8125 16.3125C8.5625 16.4792 8.36806 16.7014 8.22917 16.9792C7.92361 17.6042 7.90972 18.1215 8.1875 18.5312C8.46528 18.941 9.06944 19.4514 10 20.0625C11.1528 20.7986 12.7222 21.2639 14.7083 21.4583L13.6458 22.5417C11.6736 24.5139 10.3472 25.8333 9.66667 26.5C9.36111 26.8056 9.20833 27.1701 9.20833 27.5938C9.20833 28.0174 9.36111 28.3819 9.66667 28.6875L9.85417 28.875C10.1597 29.1806 10.5243 29.3333 10.9479 29.3333C11.3715 29.3333 11.7361 29.1806 12.0417 28.875L16.0208 24.8958C17.6042 26.4931 18.9306 27.8194 20 28.875C20.3056 29.1806 20.6701 29.3333 21.0938 29.3333C21.5174 29.3333 21.8819 29.1806 22.1875 28.875L22.375 28.6875C22.6806 28.3819 22.8333 28.0174 22.8333 27.5938C22.8333 27.1701 22.6806 26.8056 22.375 26.5L18.3958 22.5417L17.3125 21.4583C19.2708 21.2639 20.8333 20.7986 22 20.0625C22.9306 19.4514 23.5347 18.941 23.8125 18.5312C24.0903 18.1215 24.0764 17.6042 23.7708 16.9792ZM22.75 9.41667C22.75 7.55556 22.0903 5.96528 20.7708 4.64583C19.4514 3.32639 17.8611 2.66667 16 2.66667C14.1389 2.66667 12.5486 3.32639 11.2292 4.64583C9.90972 5.96528 9.25 7.55556 9.25 9.41667C9.25 11.2778 9.90972 12.8681 11.2292 14.1875C12.5486 15.5069 14.1389 16.1667 16 16.1667C17.8611 16.1667 19.4514 15.5069 20.7708 14.1875C22.0903 12.8681 22.75 11.2778 22.75 9.41667ZM32 6V26C32 27.6528 31.4132 29.066 30.2396 30.2396C29.066 31.4132 27.6528 32 26 32H6C4.34722 32 2.93403 31.4132 1.76042 30.2396C0.586806 29.066 0 27.6528 0 26V6C0 4.34722 0.586806 2.93403 1.76042 1.76042C2.93403 0.586806 4.34722 0 6 0H26C27.6528 0 29.066 0.586806 30.2396 1.76042C31.4132 2.93403 32 4.34722 32 6Z" fill="#F0F0F1"/>
</svg>
