<svg width="48" height="48" viewBox="0 0 48 48" fill="none" xmlns="http://www.w3.org/2000/svg">
<path d="M41.6668 9.86664C38.6454 9.06025 35.6937 8.01244 32.8401 6.7333C30.0327 5.51546 27.3226 4.08461 24.7334 2.4533L24.0001 1.99997L23.2801 2.46664C20.691 4.09795 17.9809 5.52879 15.1734 6.74664C12.3152 8.02189 9.35896 9.06526 6.33344 9.86664L5.33344 10.12V21.24C5.33344 39.0933 23.3734 45.7733 23.5468 45.84L24.0001 46L24.4534 45.84C24.6401 45.84 42.6668 39.1066 42.6668 21.24V10.12L41.6668 9.86664ZM35.5734 18.7333L20.6801 33.2L12.2534 24.76C11.8998 24.4063 11.7012 23.9267 11.7012 23.4266C11.7012 22.9265 11.8998 22.4469 12.2534 22.0933C12.6071 21.7397 13.0867 21.541 13.5868 21.541C14.0869 21.541 14.5665 21.7397 14.9201 22.0933L20.7201 28L32.9734 16C33.1485 15.8249 33.3564 15.686 33.5852 15.5912C33.8139 15.4965 34.0591 15.4477 34.3068 15.4477C34.5544 15.4477 34.7996 15.4965 35.0284 15.5912C35.2571 15.686 35.465 15.8249 35.6401 16C35.8152 16.1751 35.9541 16.3829 36.0489 16.6117C36.1436 16.8405 36.1924 17.0857 36.1924 17.3333C36.1924 17.5809 36.1436 17.8261 36.0489 18.0549C35.9541 18.2837 35.8152 18.4915 35.6401 18.6666L35.5734 18.7333Z" fill="#8E322E"/>
</svg>
