<svg width="48" height="50" viewBox="0 0 48 50" fill="none" xmlns="http://www.w3.org/2000/svg">
<g filter="url(#filter0_d)">
<path d="M16 21.52H14.84C13.257 21.4628 11.6792 21.7315 10.2043 22.3095C8.72954 22.8875 7.38925 23.7624 6.26667 24.88L5.94667 25.2533V36.2933H11.3867V30.0266L12.12 29.2L12.4533 28.8133C14.1892 27.03 16.3504 25.7177 18.7333 25C17.5403 24.0921 16.5993 22.8942 16 21.52Z" fill="#8E322E"/>
<path d="M41.7867 24.84C40.6641 23.7224 39.3238 22.8475 37.849 22.2695C36.3742 21.6915 34.7963 21.4227 33.2133 21.48C32.7278 21.4813 32.2427 21.508 31.76 21.56C31.1494 22.8492 30.2342 23.9703 29.0933 24.8266C31.6373 25.5304 33.9418 26.9131 35.76 28.8266L36.0933 29.2L36.8133 30.0266V36.3066H42.0667V25.2133L41.7867 24.84Z" fill="#8E322E"/>
<path d="M14.8 18.92H15.2133C15.0213 17.271 15.3106 15.6017 16.0464 14.1135C16.7823 12.6253 17.9331 11.3819 19.36 10.5334C18.8428 9.74318 18.1292 9.10085 17.2891 8.66931C16.449 8.23776 15.5112 8.03178 14.5676 8.07155C13.624 8.11131 12.7069 8.39545 11.9062 8.89615C11.1054 9.39684 10.4483 10.0969 9.9994 10.9278C9.55047 11.7588 9.32503 12.692 9.34516 13.6362C9.36528 14.5805 9.63028 15.5033 10.1142 16.3143C10.5981 17.1253 11.2844 17.7968 12.1058 18.2629C12.9272 18.729 13.8556 18.9739 14.8 18.9734V18.92Z" fill="#8E322E"/>
<path d="M32.5733 17.92C32.5895 18.2265 32.5895 18.5336 32.5733 18.84C32.8292 18.8806 33.0876 18.9029 33.3467 18.9067H33.6C34.5403 18.8565 35.4516 18.5638 36.2451 18.0569C37.0387 17.5501 37.6875 16.8463 38.1283 16.0143C38.5692 15.1823 38.7871 14.2502 38.7608 13.309C38.7346 12.3677 38.465 11.4493 37.9785 10.6432C37.4919 9.83699 36.8049 9.17055 35.9843 8.70872C35.1637 8.24689 34.2375 8.0054 33.2959 8.00777C32.3543 8.01014 31.4293 8.25628 30.6111 8.72224C29.7928 9.18819 29.1092 9.85808 28.6267 10.6667C29.8334 11.4546 30.8258 12.5298 31.5146 13.7957C32.2034 15.0617 32.5672 16.4788 32.5733 17.92Z" fill="#8E322E"/>
<path d="M23.8267 23.8934C27.1183 23.8934 29.7867 21.225 29.7867 17.9334C29.7867 14.6417 27.1183 11.9734 23.8267 11.9734C20.5351 11.9734 17.8667 14.6417 17.8667 17.9334C17.8667 21.225 20.5351 23.8934 23.8267 23.8934Z" fill="#8E322E"/>
<path d="M24.1467 27.0667C22.4054 26.9964 20.6679 27.2791 19.0387 27.8978C17.4095 28.5164 15.9224 29.4583 14.6667 30.6667L14.3333 31.04V39.48C14.3385 39.755 14.3979 40.0261 14.5079 40.2781C14.6179 40.5301 14.7765 40.758 14.9746 40.9486C15.1727 41.1393 15.4065 41.2891 15.6625 41.3894C15.9185 41.4898 16.1918 41.5387 16.4667 41.5334H31.7867C32.0616 41.5387 32.3348 41.4898 32.5909 41.3894C32.8469 41.2891 33.0806 41.1393 33.2787 40.9486C33.4768 40.758 33.6354 40.5301 33.7454 40.2781C33.8555 40.0261 33.9148 39.755 33.92 39.48V31.0667L33.6 30.6667C32.3524 29.4546 30.8704 28.5101 29.2449 27.891C27.6193 27.272 25.8845 26.9915 24.1467 27.0667Z" fill="#8E322E"/>
</g>
<defs>
<filter id="filter0_d" x="-4" y="0" width="56" height="56" filterUnits="userSpaceOnUse" color-interpolation-filters="sRGB">
<feFlood flood-opacity="0" result="BackgroundImageFix"/>
<feColorMatrix in="SourceAlpha" type="matrix" values="0 0 0 0 0 0 0 0 0 0 0 0 0 0 0 0 0 0 127 0"/>
<feOffset dy="4"/>
<feGaussianBlur stdDeviation="2"/>
<feColorMatrix type="matrix" values="0 0 0 0 0 0 0 0 0 0 0 0 0 0 0 0 0 0 0.25 0"/>
<feBlend mode="normal" in2="BackgroundImageFix" result="effect1_dropShadow"/>
<feBlend mode="normal" in="SourceGraphic" in2="effect1_dropShadow" result="shape"/>
</filter>
</defs>
</svg>
