<svg width="24" height="24" viewBox="0 0 24 24" fill="none" xmlns="http://www.w3.org/2000/svg">
<path d="M14.641 0H10.1089C5.36195 0 1.49997 3.8945 1.49997 8.68161V12.7996C1.49997 16.3646 3.6718 19.5685 6.93747 20.8733V23.543C6.93747 23.7239 7.04305 23.8876 7.20708 23.9607C7.26599 23.9872 7.32852 24 7.39059 24C7.5007 24 7.60991 23.9593 7.69464 23.8816L10.3223 21.4812H14.641C19.388 21.4812 23.25 17.5867 23.25 12.7996V8.68161C23.25 3.8945 19.388 0 14.641 0Z" fill="#F0F0F1"/>
<path d="M18.3635 13.9364L15.5786 12.1119C15.2741 11.9122 14.9116 11.8445 14.5568 11.9186C14.2015 11.994 13.8961 12.2056 13.6981 12.5141L13.5671 12.717C12.3618 12.3153 11.0328 11.802 10.2371 9.47885L10.5665 9.19C11.132 8.6941 11.1914 7.82663 10.6998 7.25532L8.52114 4.72739C8.35711 4.5368 8.07074 4.51715 7.88178 4.68214L6.5138 5.88143C5.31393 6.93356 5.87444 8.4898 6.05886 9.00124C6.06702 9.02409 6.07699 9.04603 6.08877 9.06751C6.13635 9.15343 7.27233 11.1983 9.10703 13.0831C10.949 14.9758 14.2745 16.7235 14.3764 16.7742C14.7561 17.0229 15.1834 17.1422 15.6062 17.1422C16.3484 17.1422 17.0761 16.7751 17.5102 16.1024L18.4971 14.5694C18.6331 14.3569 18.5733 14.074 18.3635 13.9364ZM16.7499 15.6042C16.3416 16.2386 15.4979 16.4187 14.8318 15.9854C14.7987 15.968 11.495 14.2326 9.75364 12.4433C8.12602 10.7709 7.04532 8.91303 6.89805 8.65388C6.53918 7.63878 6.60261 7.01491 7.1083 6.57157L8.13463 5.67211L10.016 7.85496C10.1832 8.04875 10.1637 8.33212 9.9725 8.49986L9.41652 8.98707C9.28103 9.1059 9.22757 9.29375 9.28058 9.46651C10.2285 12.5735 12.0718 13.1837 13.4176 13.6293L13.6138 13.6947C13.81 13.7614 14.0248 13.6851 14.1372 13.5105L14.4584 13.0114C14.5246 12.9081 14.6261 12.8381 14.7439 12.813C14.8622 12.7874 14.9827 12.8112 15.0851 12.8784L17.4903 14.4538L16.7499 15.6042Z" fill="#052953"/>
<path d="M13.4095 7.42561C13.1684 7.35569 12.9178 7.49691 12.8494 7.74006C12.781 7.98275 12.9206 8.2355 13.1612 8.30452C13.8363 8.4983 14.3742 9.04173 14.5645 9.72319C14.6207 9.92429 14.8024 10.0564 15.0004 10.0564C15.0412 10.0564 15.0824 10.0509 15.1237 10.0395C15.3643 9.97091 15.5047 9.71862 15.4368 9.47547C15.1617 8.49099 14.3846 7.70533 13.4095 7.42561Z" fill="#052953"/>
<path d="M16.8577 10.1553C16.8985 10.1553 16.9398 10.1498 16.981 10.1384C17.2221 10.0699 17.3621 9.81712 17.2941 9.57442C16.7594 7.6626 15.251 6.13789 13.3569 5.594C13.1163 5.52407 12.8657 5.66621 12.7973 5.90891C12.7289 6.1516 12.8684 6.40435 13.109 6.47336C14.7027 6.93041 15.9719 8.21425 16.4218 9.8226C16.4785 10.0237 16.6597 10.1553 16.8577 10.1553Z" fill="#052953"/>
<path d="M13.1616 3.46516C12.9205 3.39523 12.6699 3.53646 12.6015 3.78007C12.5331 4.02276 12.6727 4.27551 12.9133 4.34452C15.6134 5.11922 17.7644 7.29385 18.5266 10.0192C18.5828 10.2203 18.7645 10.3524 18.9625 10.3524C19.0033 10.3524 19.0445 10.3469 19.0857 10.3355C19.3264 10.2669 19.4668 10.0142 19.3989 9.7715C18.552 6.74265 16.1622 4.3267 13.1616 3.46516Z" fill="#052953"/>
</svg>
