<svg width="32" height="32" viewBox="0 0 32 32" fill="none" xmlns="http://www.w3.org/2000/svg">
<g clip-path="url(#clip0)">
<path d="M20.912 0H11.088C2.12797 0 -2.67029e-05 2.128 -2.67029e-05 11.088V20.912C-2.67029e-05 29.872 2.12797 32 11.088 32H20.912C29.872 32 32 29.872 32 20.912V11.088C32 2.128 29.872 0 20.912 0ZM25.84 22.832H23.504C22.624 22.832 22.352 22.112 20.8 20.528C19.392 19.2 18.784 19.008 18.448 19.008C17.984 19.008 17.84 19.136 17.84 19.808V21.904C17.84 22.464 17.664 22.816 16.176 22.816C13.712 22.816 10.976 21.312 9.05597 18.544C6.15997 14.48 5.37597 11.408 5.37597 10.8C5.37597 10.464 5.48797 10.144 6.15997 10.144H8.51197C9.10397 10.144 9.32797 10.4 9.55197 11.04C10.704 14.4 12.624 17.28 13.408 17.28C13.712 17.28 13.84 17.136 13.84 16.4V12.96C13.76 11.392 12.912 11.248 12.912 10.688C12.912 10.4 13.136 10.144 13.504 10.144H17.168C17.664 10.144 17.84 10.4 17.84 11.008V15.632C17.84 16.128 18.048 16.304 18.208 16.304C18.496 16.304 18.752 16.128 19.28 15.584C20.96 13.712 22.16 10.816 22.16 10.816C22.32 10.48 22.576 10.16 23.2 10.16H25.488C26.192 10.16 26.352 10.528 26.192 11.024C25.904 12.384 23.056 16.4 23.088 16.4C22.832 16.8 22.736 16.976 23.088 17.44C23.328 17.776 24.144 18.48 24.688 19.104C25.68 20.24 26.448 21.184 26.656 21.84C26.832 22.496 26.512 22.832 25.84 22.832Z" fill="#F0F0F1"/>
</g>
<defs>
<clipPath id="clip0">
<rect width="32" height="32" fill="white"/>
</clipPath>
</defs>
</svg>
