<svg width="24" height="24" viewBox="0 0 24 24" fill="none" xmlns="http://www.w3.org/2000/svg">
<g clip-path="url(#clip0)">
<path d="M0.00483131 24L1.62723 18.0384C0.558196 16.2058 -0.0034535 14.1216 3.13775e-05 12C3.13775e-05 5.3724 5.37243 0 12 0C18.6276 0 24 5.3724 24 12C24 18.6276 18.6276 24 12 24C9.87936 24.0034 7.79601 23.4422 5.96403 22.374L0.00483131 24ZM7.66923 6.3696C7.51426 6.37922 7.36283 6.42003 7.22403 6.4896C7.09385 6.56331 6.97502 6.65547 6.87123 6.7632C6.72723 6.8988 6.64563 7.0164 6.55803 7.1304C6.11452 7.70759 5.87596 8.4161 5.88003 9.14399C5.88243 9.73199 6.03603 10.3044 6.27603 10.8396C6.76683 11.922 7.57443 13.068 8.64122 14.13C8.89802 14.3856 9.14882 14.6424 9.41882 14.8812C10.7429 16.0469 12.3207 16.8876 14.0268 17.3364L14.7096 17.4408C14.9316 17.4528 15.1536 17.436 15.3768 17.4252C15.7263 17.4071 16.0676 17.3125 16.3764 17.148C16.5336 17.067 16.6869 16.979 16.836 16.884C16.836 16.884 16.8876 16.8504 16.986 16.776C17.148 16.656 17.2476 16.5708 17.382 16.4304C17.4816 16.3272 17.568 16.206 17.634 16.068C17.7276 15.8724 17.8212 15.4992 17.8596 15.1884C17.8884 14.9508 17.88 14.8212 17.8764 14.7408C17.8716 14.6124 17.7648 14.4792 17.6484 14.4228L16.95 14.1096C16.95 14.1096 15.906 13.6548 15.2688 13.3644C15.2016 13.3351 15.1296 13.3184 15.0564 13.3152C14.9743 13.3068 14.8914 13.316 14.8131 13.3423C14.7349 13.3686 14.6632 13.4113 14.6028 13.4676V13.4652C14.5968 13.4652 14.5164 13.5336 13.6488 14.5848C13.599 14.6517 13.5304 14.7023 13.4518 14.7301C13.3731 14.7578 13.288 14.7616 13.2072 14.7408C13.129 14.7199 13.0524 14.6934 12.978 14.6616C12.8292 14.5992 12.7776 14.5752 12.6756 14.5308L12.6696 14.5284C11.9831 14.2287 11.3475 13.8238 10.7856 13.3284C10.6344 13.1964 10.494 13.0524 10.35 12.9132C9.87792 12.4611 9.46648 11.9496 9.12602 11.3916L9.05522 11.2776C9.00437 11.201 8.96326 11.1184 8.93283 11.0316C8.88723 10.8552 9.00602 10.7136 9.00602 10.7136C9.00602 10.7136 9.29762 10.3944 9.43322 10.2216C9.54613 10.078 9.65147 9.92858 9.74882 9.77399C9.89042 9.54599 9.93482 9.31199 9.86042 9.13079C9.52442 8.30999 9.17642 7.49279 8.81882 6.6816C8.74802 6.5208 8.53802 6.4056 8.34723 6.3828C8.28243 6.3756 8.21762 6.3684 8.15282 6.3636C7.99167 6.35559 7.83019 6.35719 7.66923 6.3684V6.3696Z" fill="#F0F0F1"/>
</g>
<defs>
<clipPath id="clip0">
<rect width="24" height="24" fill="white"/>
</clipPath>
</defs>
</svg>
